<mxfile host="app.diagrams.net" modified="2023-03-25T20:18:57.195Z" agent="Mozilla/5.0 (Windows NT 10.0; Win64; x64) AppleWebKit/537.36 (KHTML, like Gecko) Chrome/111.0.0.0 Safari/537.36" etag="l8xUao3h1CtcpFAr4irb" version="21.1.1" type="device">
  <diagram id="C5RBs43oDa-KdzZeNtuy" name="Page-1">
    <mxGraphModel dx="1578" dy="982" grid="1" gridSize="10" guides="1" tooltips="1" connect="1" arrows="1" fold="1" page="1" pageScale="1" pageWidth="827" pageHeight="1169" math="0" shadow="0">
      <root>
        <mxCell id="WIyWlLk6GJQsqaUBKTNV-0" />
        <mxCell id="WIyWlLk6GJQsqaUBKTNV-1" parent="WIyWlLk6GJQsqaUBKTNV-0" />
        <mxCell id="Buv3PsvAgUMEhx8rMk61-19" value="" style="edgeStyle=orthogonalEdgeStyle;rounded=0;orthogonalLoop=1;jettySize=auto;html=1;" edge="1" parent="WIyWlLk6GJQsqaUBKTNV-1" source="Buv3PsvAgUMEhx8rMk61-4">
          <mxGeometry relative="1" as="geometry">
            <mxPoint x="410" y="145" as="targetPoint" />
          </mxGeometry>
        </mxCell>
        <mxCell id="Buv3PsvAgUMEhx8rMk61-40" value="socios&lt;br&gt;(0..*)" style="edgeLabel;html=1;align=center;verticalAlign=middle;resizable=0;points=[];" vertex="1" connectable="0" parent="Buv3PsvAgUMEhx8rMk61-19">
          <mxGeometry x="0.5445" y="-3" relative="1" as="geometry">
            <mxPoint as="offset" />
          </mxGeometry>
        </mxCell>
        <mxCell id="Buv3PsvAgUMEhx8rMk61-4" value="Biblioteca" style="swimlane;fontStyle=1;align=center;verticalAlign=top;childLayout=stackLayout;horizontal=1;startSize=26;horizontalStack=0;resizeParent=1;resizeParentMax=0;resizeLast=0;collapsible=1;marginBottom=0;whiteSpace=wrap;html=1;fillColor=#f0a30a;fontColor=#000000;strokeColor=#BD7000;gradientColor=none;rounded=1;glass=0;shadow=0;" vertex="1" parent="WIyWlLk6GJQsqaUBKTNV-1">
          <mxGeometry x="50" y="110" width="280" height="230" as="geometry" />
        </mxCell>
        <mxCell id="Buv3PsvAgUMEhx8rMk61-6" value="" style="line;strokeWidth=1;fillColor=none;align=left;verticalAlign=middle;spacingTop=-1;spacingLeft=3;spacingRight=3;rotatable=0;labelPosition=right;points=[];portConstraint=eastwest;strokeColor=inherit;" vertex="1" parent="Buv3PsvAgUMEhx8rMk61-4">
          <mxGeometry y="26" width="280" height="8" as="geometry" />
        </mxCell>
        <mxCell id="Buv3PsvAgUMEhx8rMk61-8" value="+ &amp;lt;&amp;lt;Create&amp;gt;&amp;gt; Biblioteca(): Biblioteca" style="text;strokeColor=none;fillColor=none;align=left;verticalAlign=top;spacingLeft=4;spacingRight=4;overflow=hidden;rotatable=0;points=[[0,0.5],[1,0.5]];portConstraint=eastwest;whiteSpace=wrap;html=1;" vertex="1" parent="Buv3PsvAgUMEhx8rMk61-4">
          <mxGeometry y="34" width="280" height="36" as="geometry" />
        </mxCell>
        <mxCell id="Buv3PsvAgUMEhx8rMk61-9" value="+ agregarSocio(socio:Socio)" style="text;strokeColor=none;fillColor=none;align=left;verticalAlign=top;spacingLeft=4;spacingRight=4;overflow=hidden;rotatable=0;points=[[0,0.5],[1,0.5]];portConstraint=eastwest;whiteSpace=wrap;html=1;" vertex="1" parent="Buv3PsvAgUMEhx8rMk61-4">
          <mxGeometry y="70" width="280" height="40" as="geometry" />
        </mxCell>
        <mxCell id="Buv3PsvAgUMEhx8rMk61-10" value="+exportarSocios(): String" style="text;strokeColor=none;fillColor=none;align=left;verticalAlign=top;spacingLeft=4;spacingRight=4;overflow=hidden;rotatable=0;points=[[0,0.5],[1,0.5]];portConstraint=eastwest;whiteSpace=wrap;html=1;" vertex="1" parent="Buv3PsvAgUMEhx8rMk61-4">
          <mxGeometry y="110" width="280" height="40" as="geometry" />
        </mxCell>
        <mxCell id="Buv3PsvAgUMEhx8rMk61-11" value="+ getExporter(): voonheesExporter" style="text;strokeColor=none;fillColor=none;align=left;verticalAlign=top;spacingLeft=4;spacingRight=4;overflow=hidden;rotatable=0;points=[[0,0.5],[1,0.5]];portConstraint=eastwest;whiteSpace=wrap;html=1;" vertex="1" parent="Buv3PsvAgUMEhx8rMk61-4">
          <mxGeometry y="150" width="280" height="40" as="geometry" />
        </mxCell>
        <mxCell id="Buv3PsvAgUMEhx8rMk61-7" value="+ setExporter(exporter: VoonHeesExporter)" style="text;strokeColor=none;fillColor=none;align=left;verticalAlign=top;spacingLeft=4;spacingRight=4;overflow=hidden;rotatable=0;points=[[0,0.5],[1,0.5]];portConstraint=eastwest;whiteSpace=wrap;html=1;" vertex="1" parent="Buv3PsvAgUMEhx8rMk61-4">
          <mxGeometry y="190" width="280" height="40" as="geometry" />
        </mxCell>
        <mxCell id="Buv3PsvAgUMEhx8rMk61-28" value="Classname" style="swimlane;fontStyle=1;align=center;verticalAlign=top;childLayout=stackLayout;horizontal=1;startSize=26;horizontalStack=0;resizeParent=1;resizeParentMax=0;resizeLast=0;collapsible=1;marginBottom=0;whiteSpace=wrap;html=1;fillColor=#f0a30a;strokeColor=#BD7000;fontColor=#000000;gradientColor=none;rounded=1;glass=0;shadow=0;" vertex="1" parent="WIyWlLk6GJQsqaUBKTNV-1">
          <mxGeometry x="420" y="110" width="390" height="294" as="geometry" />
        </mxCell>
        <mxCell id="Buv3PsvAgUMEhx8rMk61-29" value="- nombre:String" style="text;strokeColor=none;fillColor=none;align=left;verticalAlign=top;spacingLeft=4;spacingRight=4;overflow=hidden;rotatable=0;points=[[0,0.5],[1,0.5]];portConstraint=eastwest;whiteSpace=wrap;html=1;" vertex="1" parent="Buv3PsvAgUMEhx8rMk61-28">
          <mxGeometry y="26" width="390" height="26" as="geometry" />
        </mxCell>
        <mxCell id="Buv3PsvAgUMEhx8rMk61-32" value="- legajo: String" style="text;strokeColor=none;fillColor=none;align=left;verticalAlign=top;spacingLeft=4;spacingRight=4;overflow=hidden;rotatable=0;points=[[0,0.5],[1,0.5]];portConstraint=eastwest;whiteSpace=wrap;html=1;" vertex="1" parent="Buv3PsvAgUMEhx8rMk61-28">
          <mxGeometry y="52" width="390" height="26" as="geometry" />
        </mxCell>
        <mxCell id="Buv3PsvAgUMEhx8rMk61-33" value="- email: String" style="text;strokeColor=none;fillColor=none;align=left;verticalAlign=top;spacingLeft=4;spacingRight=4;overflow=hidden;rotatable=0;points=[[0,0.5],[1,0.5]];portConstraint=eastwest;whiteSpace=wrap;html=1;" vertex="1" parent="Buv3PsvAgUMEhx8rMk61-28">
          <mxGeometry y="78" width="390" height="26" as="geometry" />
        </mxCell>
        <mxCell id="Buv3PsvAgUMEhx8rMk61-30" value="" style="line;strokeWidth=1;fillColor=none;align=left;verticalAlign=middle;spacingTop=-1;spacingLeft=3;spacingRight=3;rotatable=0;labelPosition=right;points=[];portConstraint=eastwest;strokeColor=inherit;" vertex="1" parent="Buv3PsvAgUMEhx8rMk61-28">
          <mxGeometry y="104" width="390" height="8" as="geometry" />
        </mxCell>
        <mxCell id="Buv3PsvAgUMEhx8rMk61-31" value="+ &amp;lt;&amp;lt;create&amp;gt;&amp;gt; Socio(nombre:String, legajo:String, email:String): Socio" style="text;strokeColor=none;fillColor=none;align=left;verticalAlign=top;spacingLeft=4;spacingRight=4;overflow=hidden;rotatable=0;points=[[0,0.5],[1,0.5]];portConstraint=eastwest;whiteSpace=wrap;html=1;" vertex="1" parent="Buv3PsvAgUMEhx8rMk61-28">
          <mxGeometry y="112" width="390" height="26" as="geometry" />
        </mxCell>
        <mxCell id="Buv3PsvAgUMEhx8rMk61-34" value="+ getNombre(): String" style="text;strokeColor=none;fillColor=none;align=left;verticalAlign=top;spacingLeft=4;spacingRight=4;overflow=hidden;rotatable=0;points=[[0,0.5],[1,0.5]];portConstraint=eastwest;whiteSpace=wrap;html=1;" vertex="1" parent="Buv3PsvAgUMEhx8rMk61-28">
          <mxGeometry y="138" width="390" height="26" as="geometry" />
        </mxCell>
        <mxCell id="Buv3PsvAgUMEhx8rMk61-35" value="+ setNombre(nombre:String)" style="text;strokeColor=none;fillColor=none;align=left;verticalAlign=top;spacingLeft=4;spacingRight=4;overflow=hidden;rotatable=0;points=[[0,0.5],[1,0.5]];portConstraint=eastwest;whiteSpace=wrap;html=1;" vertex="1" parent="Buv3PsvAgUMEhx8rMk61-28">
          <mxGeometry y="164" width="390" height="26" as="geometry" />
        </mxCell>
        <mxCell id="Buv3PsvAgUMEhx8rMk61-36" value="+ getLegajo():String" style="text;strokeColor=none;fillColor=none;align=left;verticalAlign=top;spacingLeft=4;spacingRight=4;overflow=hidden;rotatable=0;points=[[0,0.5],[1,0.5]];portConstraint=eastwest;whiteSpace=wrap;html=1;" vertex="1" parent="Buv3PsvAgUMEhx8rMk61-28">
          <mxGeometry y="190" width="390" height="26" as="geometry" />
        </mxCell>
        <mxCell id="Buv3PsvAgUMEhx8rMk61-37" value="+ setLegajo(legajo:String)" style="text;strokeColor=none;fillColor=none;align=left;verticalAlign=top;spacingLeft=4;spacingRight=4;overflow=hidden;rotatable=0;points=[[0,0.5],[1,0.5]];portConstraint=eastwest;whiteSpace=wrap;html=1;" vertex="1" parent="Buv3PsvAgUMEhx8rMk61-28">
          <mxGeometry y="216" width="390" height="26" as="geometry" />
        </mxCell>
        <mxCell id="Buv3PsvAgUMEhx8rMk61-38" value="+ getEmail():String" style="text;strokeColor=none;fillColor=none;align=left;verticalAlign=top;spacingLeft=4;spacingRight=4;overflow=hidden;rotatable=0;points=[[0,0.5],[1,0.5]];portConstraint=eastwest;whiteSpace=wrap;html=1;" vertex="1" parent="Buv3PsvAgUMEhx8rMk61-28">
          <mxGeometry y="242" width="390" height="26" as="geometry" />
        </mxCell>
        <mxCell id="Buv3PsvAgUMEhx8rMk61-39" value="+ setEmail(email:String)" style="text;strokeColor=none;fillColor=none;align=left;verticalAlign=top;spacingLeft=4;spacingRight=4;overflow=hidden;rotatable=0;points=[[0,0.5],[1,0.5]];portConstraint=eastwest;whiteSpace=wrap;html=1;" vertex="1" parent="Buv3PsvAgUMEhx8rMk61-28">
          <mxGeometry y="268" width="390" height="26" as="geometry" />
        </mxCell>
        <mxCell id="Buv3PsvAgUMEhx8rMk61-41" value="&amp;lt;&amp;lt;interface&amp;gt;&amp;gt; VoorheesExporter" style="swimlane;fontStyle=1;align=center;verticalAlign=top;childLayout=stackLayout;horizontal=1;startSize=26;horizontalStack=0;resizeParent=1;resizeParentMax=0;resizeLast=0;collapsible=1;marginBottom=0;whiteSpace=wrap;html=1;fillColor=#f0a30a;strokeColor=#BD7000;fontColor=#000000;gradientColor=none;rounded=1;glass=0;shadow=0;" vertex="1" parent="WIyWlLk6GJQsqaUBKTNV-1">
          <mxGeometry x="210" y="515" width="290" height="70" as="geometry" />
        </mxCell>
        <mxCell id="Buv3PsvAgUMEhx8rMk61-43" value="" style="line;strokeWidth=1;fillColor=none;align=left;verticalAlign=middle;spacingTop=-1;spacingLeft=3;spacingRight=3;rotatable=0;labelPosition=right;points=[];portConstraint=eastwest;strokeColor=inherit;" vertex="1" parent="Buv3PsvAgUMEhx8rMk61-41">
          <mxGeometry y="26" width="290" height="8" as="geometry" />
        </mxCell>
        <mxCell id="Buv3PsvAgUMEhx8rMk61-44" value="+ &amp;lt;&amp;lt;abstract&amp;gt;&amp;gt; exportar(socios:List&amp;lt;Socio&amp;gt;):String" style="text;strokeColor=none;fillColor=none;align=left;verticalAlign=top;spacingLeft=4;spacingRight=4;overflow=hidden;rotatable=0;points=[[0,0.5],[1,0.5]];portConstraint=eastwest;whiteSpace=wrap;html=1;" vertex="1" parent="Buv3PsvAgUMEhx8rMk61-41">
          <mxGeometry y="34" width="290" height="36" as="geometry" />
        </mxCell>
        <mxCell id="Buv3PsvAgUMEhx8rMk61-45" style="edgeStyle=orthogonalEdgeStyle;rounded=0;orthogonalLoop=1;jettySize=auto;html=1;" edge="1" parent="WIyWlLk6GJQsqaUBKTNV-1" source="Buv3PsvAgUMEhx8rMk61-10" target="Buv3PsvAgUMEhx8rMk61-41">
          <mxGeometry relative="1" as="geometry" />
        </mxCell>
        <mxCell id="Buv3PsvAgUMEhx8rMk61-46" value="- exporter" style="edgeLabel;html=1;align=center;verticalAlign=middle;resizable=0;points=[];" vertex="1" connectable="0" parent="Buv3PsvAgUMEhx8rMk61-45">
          <mxGeometry x="-0.1422" y="-1" relative="1" as="geometry">
            <mxPoint as="offset" />
          </mxGeometry>
        </mxCell>
        <mxCell id="Buv3PsvAgUMEhx8rMk61-54" style="edgeStyle=orthogonalEdgeStyle;rounded=0;orthogonalLoop=1;jettySize=auto;html=1;exitX=0.5;exitY=0;exitDx=0;exitDy=0;entryX=0.517;entryY=1.019;entryDx=0;entryDy=0;entryPerimeter=0;" edge="1" parent="WIyWlLk6GJQsqaUBKTNV-1" source="Buv3PsvAgUMEhx8rMk61-47" target="Buv3PsvAgUMEhx8rMk61-44">
          <mxGeometry relative="1" as="geometry" />
        </mxCell>
        <mxCell id="Buv3PsvAgUMEhx8rMk61-47" value="JSONsimpleAdapter" style="swimlane;fontStyle=1;align=center;verticalAlign=top;childLayout=stackLayout;horizontal=1;startSize=26;horizontalStack=0;resizeParent=1;resizeParentMax=0;resizeLast=0;collapsible=1;marginBottom=0;whiteSpace=wrap;html=1;fillColor=#f0a30a;strokeColor=#BD7000;fontColor=#000000;gradientColor=none;rounded=1;glass=0;shadow=0;" vertex="1" parent="WIyWlLk6GJQsqaUBKTNV-1">
          <mxGeometry x="60" y="690" width="290" height="106" as="geometry" />
        </mxCell>
        <mxCell id="Buv3PsvAgUMEhx8rMk61-48" value="" style="line;strokeWidth=1;fillColor=none;align=left;verticalAlign=middle;spacingTop=-1;spacingLeft=3;spacingRight=3;rotatable=0;labelPosition=right;points=[];portConstraint=eastwest;strokeColor=inherit;" vertex="1" parent="Buv3PsvAgUMEhx8rMk61-47">
          <mxGeometry y="26" width="290" height="8" as="geometry" />
        </mxCell>
        <mxCell id="Buv3PsvAgUMEhx8rMk61-60" value="+ exportar(socios:List&amp;lt;Socio&amp;gt;):String" style="text;strokeColor=none;fillColor=none;align=left;verticalAlign=top;spacingLeft=4;spacingRight=4;overflow=hidden;rotatable=0;points=[[0,0.5],[1,0.5]];portConstraint=eastwest;whiteSpace=wrap;html=1;" vertex="1" parent="Buv3PsvAgUMEhx8rMk61-47">
          <mxGeometry y="34" width="290" height="36" as="geometry" />
        </mxCell>
        <mxCell id="Buv3PsvAgUMEhx8rMk61-49" value="- exportar(socio:Socio):&amp;nbsp;JSONObject" style="text;strokeColor=none;fillColor=none;align=left;verticalAlign=top;spacingLeft=4;spacingRight=4;overflow=hidden;rotatable=0;points=[[0,0.5],[1,0.5]];portConstraint=eastwest;whiteSpace=wrap;html=1;" vertex="1" parent="Buv3PsvAgUMEhx8rMk61-47">
          <mxGeometry y="70" width="290" height="36" as="geometry" />
        </mxCell>
        <mxCell id="Buv3PsvAgUMEhx8rMk61-56" style="edgeStyle=orthogonalEdgeStyle;rounded=0;orthogonalLoop=1;jettySize=auto;html=1;exitX=0.5;exitY=0;exitDx=0;exitDy=0;entryX=0.513;entryY=0.988;entryDx=0;entryDy=0;entryPerimeter=0;endArrow=none;endFill=0;" edge="1" parent="WIyWlLk6GJQsqaUBKTNV-1" source="Buv3PsvAgUMEhx8rMk61-50" target="Buv3PsvAgUMEhx8rMk61-44">
          <mxGeometry relative="1" as="geometry" />
        </mxCell>
        <mxCell id="Buv3PsvAgUMEhx8rMk61-50" value="JSONJacksonAdapter" style="swimlane;fontStyle=1;align=center;verticalAlign=top;childLayout=stackLayout;horizontal=1;startSize=26;horizontalStack=0;resizeParent=1;resizeParentMax=0;resizeLast=0;collapsible=1;marginBottom=0;whiteSpace=wrap;html=1;fillColor=#f0a30a;strokeColor=#BD7000;fontColor=#000000;gradientColor=none;rounded=1;glass=0;shadow=0;" vertex="1" parent="WIyWlLk6GJQsqaUBKTNV-1">
          <mxGeometry x="430" y="690" width="290" height="106" as="geometry" />
        </mxCell>
        <mxCell id="Buv3PsvAgUMEhx8rMk61-51" value="" style="line;strokeWidth=1;fillColor=none;align=left;verticalAlign=middle;spacingTop=-1;spacingLeft=3;spacingRight=3;rotatable=0;labelPosition=right;points=[];portConstraint=eastwest;strokeColor=inherit;" vertex="1" parent="Buv3PsvAgUMEhx8rMk61-50">
          <mxGeometry y="26" width="290" height="8" as="geometry" />
        </mxCell>
        <mxCell id="Buv3PsvAgUMEhx8rMk61-52" value="+ exportar(socios:List&amp;lt;Socio&amp;gt;):String" style="text;strokeColor=none;fillColor=none;align=left;verticalAlign=top;spacingLeft=4;spacingRight=4;overflow=hidden;rotatable=0;points=[[0,0.5],[1,0.5]];portConstraint=eastwest;whiteSpace=wrap;html=1;" vertex="1" parent="Buv3PsvAgUMEhx8rMk61-50">
          <mxGeometry y="34" width="290" height="36" as="geometry" />
        </mxCell>
        <mxCell id="Buv3PsvAgUMEhx8rMk61-61" value="- exportar(socio:Socio): String" style="text;strokeColor=none;fillColor=none;align=left;verticalAlign=top;spacingLeft=4;spacingRight=4;overflow=hidden;rotatable=0;points=[[0,0.5],[1,0.5]];portConstraint=eastwest;whiteSpace=wrap;html=1;" vertex="1" parent="Buv3PsvAgUMEhx8rMk61-50">
          <mxGeometry y="70" width="290" height="36" as="geometry" />
        </mxCell>
      </root>
    </mxGraphModel>
  </diagram>
</mxfile>
